<svg xmlns="http://www.w3.org/2000/svg"  viewBox="0 0 66 66">
    <g transform="translate(1 1)" fill="none">
        <circle stroke="currentColor" stroke-width="2" cx="32" cy="32" r="32"/>
        <path d="M29.501 40.627c-.032-1.687.087-3.221.356-4.601s1.022-2.699 2.258-3.957a45.906 45.906 0 0 1 2.186-2.07 28.474 28.474 0 0 0 2.091-2.047 12.275 12.275 0 0 0 1.592-2.139 4.678 4.678 0 0 0 .642-2.392c0-.828-.166-1.603-.499-2.323a5.434 5.434 0 0 0-1.45-1.886c-.634-.537-1.41-.959-2.329-1.265-.919-.307-1.965-.46-3.137-.46s-2.218.199-3.137.598a6.408 6.408 0 0 0-2.305 1.656 7.193 7.193 0 0 0-1.402 2.461c-.317.936-.459 1.955-.428 3.06H21.04c-.127-1.534.048-2.929.523-4.187a8.755 8.755 0 0 1 2.115-3.244c.935-.905 2.052-1.603 3.351-2.093 1.299-.491 2.725-.736 4.278-.736 1.616 0 3.066.207 4.349.621 1.283.414 2.369.997 3.256 1.748a7.538 7.538 0 0 1 2.044 2.737c.475 1.074.713 2.254.713 3.543 0 1.35-.309 2.507-.927 3.474a14.007 14.007 0 0 1-2.258 2.691c-.887.828-1.806 1.664-2.757 2.507a14.662 14.662 0 0 0-2.472 2.829 5.25 5.25 0 0 0-.903 2.645 43.487 43.487 0 0 0-.095 2.829H29.5l.001.001zM29.216 49v-4.049h3.47V49h-3.47z" fill="currentColor"/>
    </g>
</svg>