<svg xmlns="http://www.w3.org/2000/svg" viewBox="0 0 66 66" fill="currentColor">
    <path d="M61.875 0H14.437a4.123 4.123 0 0 0-4.125 4.125v27.844H4.124a4.123 4.123 0 0 0-4.125 4.125v23.719a6.189 6.189 0 0 0 6.188 6.188h53.625A6.189 6.189 0 0 0 66 59.813V4.125A4.123 4.123 0 0 0 61.875 0zM2.062 59.813V36.094c0-1.139.924-2.063 2.063-2.063h6.188v25.781a4.125 4.125 0 0 1-8.25 0zm57.75 4.125H10.789a6.153 6.153 0 0 0 1.585-4.125V4.125c0-1.139.924-2.063 2.063-2.063h47.438c1.139 0 2.063.924 2.063 2.063v55.688a4.125 4.125 0 0 1-4.125 4.125zm-5.156-38.157h-33a1.03 1.03 0 1 0 0 2.062h33a1.03 1.03 0 1 0 0-2.062zm0-6.187h-33a1.03 1.03 0 1 0 0 2.062h33a1.03 1.03 0 1 0 0-2.062zm0 18.562h-33a1.03 1.03 0 1 0 0 2.062h33a1.03 1.03 0 1 0 0-2.062zm0 6.188h-33a1.03 1.03 0 1 0 0 2.062h33a1.03 1.03 0 1 0 0-2.062zm0 6.187h-33a1.03 1.03 0 1 0 0 2.062h33a1.03 1.03 0 1 0 0-2.062zm0-18.562h-33a1.03 1.03 0 1 0 0 2.062h33a1.03 1.03 0 1 0 0-2.062zm-33-16.5h15.469a1.03 1.03 0 1 0 0-2.062H21.656a1.03 1.03 0 1 0 0 2.062z"/>
</svg>