<svg
    width="16"
    height="16"
    class="makespace-ui-library-1qkvt8e"
    viewBox="0 0 16 16"
    xmlns="http://www.w3.org/2000/svg"
    aria-labelledby="title"
    >
    <title>Star</title>

    <g
        stroke="none"
        stroke-width="1"
        fill="none"
        fill-rule="evenodd"
    >
        <g>
        <rect
            fill="#F12222"
            x="0"
            y="0"
            width="16"
            height="16"
            rx="4"
        ></rect>

        <g
            transform="translate(2.000000, 2.000000)"
            fill="#FFFFFF"
            fill-rule="nonzero"
        >
            <path d="M11.5961538,3.94391934 C11.8653846,3.98550725 12,4.09178744 12,4.26275992 C12,4.36441924 11.9375,4.47532031 11.8125,4.59546314 L9.19471154,7.04914934 L9.81490385,10.5148078 C9.81971154,10.547154 9.82211538,10.5933627 9.82211538,10.6534342 C9.82211538,10.7504726 9.796875,10.8324932 9.74639423,10.8994959 C9.69591346,10.9664986 9.62259615,11 9.52644231,11 C9.43509615,11 9.33894231,10.9722747 9.23798077,10.9168242 L6,9.2810334 L2.76201923,10.9168242 C2.65625,10.9722747 2.56009615,11 2.47355769,11 C2.37259615,11 2.296875,10.9664986 2.24639423,10.8994959 C2.19591346,10.8324932 2.17067308,10.7504726 2.17067308,10.6534342 C2.17067308,10.6257089 2.17548077,10.5795001 2.18509615,10.5148078 L2.80528846,7.04914934 L0.180288462,4.59546314 C0.0600961538,4.47069943 0,4.35979836 0,4.26275992 C0,4.09178744 0.134615385,3.98550725 0.403846154,3.94391934 L4.02403846,3.43793321 L5.64663462,0.284183995 C5.73798077,0.0947279983 5.85576923,0 6,0 C6.14423077,0 6.26201923,0.0947279983 6.35336538,0.284183995 L7.97596154,3.43793321 L11.5961538,3.94391934 Z"></path>
        </g>
        </g>
    </g>
</svg>